<?xml version="1.0" encoding="utf-8"?>
<svg viewBox="9.205 100.349 428.633 112.56" xmlns="http://www.w3.org/2000/svg">
  <ellipse fill="#1f92a1" style="stroke-width: 1.44479; vector-effect: non-scaling-stroke" cx="381.765" cy="156.629" rx="25.379" ry="25.717"/>
  <path fill="#4a4a4a" style="" d="M 23.351 165.887 L 23.007 113.618 L 27.225 113.56 C 47.742 113.066 49.135 165.139 27.172 165.894 Z M 9.534 103.987 L 9.207 176.173 C 9.171 178.444 9.776 178.465 11.202 178.509 L 29.105 178.685 C 66.966 177.468 65.336 105.259 32.981 100.943 L 12.474 100.834 C 10.676 100.767 9.471 101.386 9.534 103.987 Z"/>
  <rect fill="#4a4a4a" x="9.904" y="204.161" width="289.933" height="8.748" style="paint-order: stroke"/>
  <path fill="#4a4a4a" d="M 97.352 154.85 L 87.92 154.695 L 93.169 133.796 Z M 70.207 179.149 L 81.749 178.984 C 82.452 178.988 82.897 178.254 82.991 177.672 L 84.814 169.227 C 85.19 168.564 85.406 168.562 85.825 168.573 L 99.823 168.483 C 100.021 168.474 100.287 168.709 100.512 169.082 L 103.516 178.06 C 103.888 178.715 104.22 179.112 105.219 179.032 L 114.885 178.89 C 115.953 178.837 116.192 178.32 116.198 177.23 L 100.411 102.364 C 100.165 101.291 99.831 100.825 99.213 100.752 L 87.341 100.662 C 86.561 100.699 86.039 101.237 85.857 101.938 L 69.379 177.765 C 69.213 178.6 69.611 179.139 70.207 179.149 Z" style=""/>
  <path fill="#4a4a4a" d="M 281.115 155.161 L 271.683 155.006 L 276.932 134.107 Z M 253.97 179.46 L 265.512 179.295 C 266.215 179.299 266.66 178.565 266.754 177.983 L 268.577 169.538 C 268.953 168.875 269.169 168.873 269.588 168.884 L 283.586 168.794 C 283.784 168.785 284.05 169.02 284.275 169.393 L 287.279 178.371 C 287.651 179.026 287.983 179.423 288.982 179.343 L 298.648 179.201 C 299.716 179.148 299.955 178.631 299.961 177.541 L 284.174 102.675 C 283.928 101.602 283.594 101.136 282.976 101.063 L 271.104 100.973 C 270.324 101.01 269.802 101.548 269.62 102.249 L 253.142 178.076 C 252.976 178.911 253.374 179.45 253.97 179.46 Z" style=""/>
  <path fill="#4a4a4a" style="" d="M 128.478 102.484 L 128.836 177.846 C 128.827 178.934 129.049 179.543 129.847 179.666 L 141.6 179.624 C 142.722 179.697 142.916 179.205 142.975 178.628 L 142.688 146.564 C 142.743 145.411 143.876 145.389 144.283 146.502 L 163.554 178.941 C 164.154 179.76 164.431 179.525 165.179 179.629 L 177.508 179.375 C 178.643 179.271 178.647 177.902 178.312 177.144 L 156.427 138.785 C 155.763 137.669 155.831 136.796 156.346 136.112 L 175.163 103.57 C 175.654 102.562 175.332 101.201 174.407 101.135 L 161.238 101.1 C 160.588 101.044 160.197 101.438 159.551 102.641 L 143.871 131.863 C 143.534 132.699 142.407 132.681 142.419 131.825 L 142.703 102.48 C 142.775 101.237 142.415 100.418 141.336 100.349 L 130.696 100.353 C 129.38 100.31 128.481 101.056 128.478 102.484 Z"/>
  <path fill="#4a4a4a" style="" d="M 191.485 102.642 L 191.843 178.004 C 191.834 179.092 192.056 179.701 192.854 179.824 L 204.607 179.782 C 205.729 179.855 205.923 179.363 205.982 178.786 L 205.695 146.722 C 205.75 145.569 206.883 145.547 207.29 146.66 L 226.561 179.099 C 227.161 179.918 227.438 179.683 228.186 179.787 L 240.515 179.533 C 241.65 179.429 241.654 178.06 241.319 177.302 L 219.434 138.943 C 218.77 137.827 218.838 136.954 219.353 136.27 L 238.17 103.728 C 238.661 102.72 238.339 101.359 237.414 101.293 L 224.245 101.258 C 223.595 101.202 223.204 101.596 222.558 102.799 L 206.878 132.021 C 206.541 132.857 205.414 132.839 205.426 131.983 L 205.71 102.638 C 205.782 101.395 205.422 100.576 204.343 100.507 L 193.703 100.511 C 192.387 100.468 191.488 101.214 191.485 102.642 Z"/>
  <path fill="#4a4a4a" d="M 437.838 156.629 C 437.838 187.597 412.733 212.702 381.765 212.702 C 350.797 212.702 325.692 187.597 325.692 156.629 C 325.692 125.661 350.797 100.556 381.765 100.556 C 412.733 100.556 437.838 125.661 437.838 156.629 Z M 381.765 108.595 C 355.237 108.595 333.731 130.101 333.731 156.629 C 333.731 183.157 355.237 204.663 381.765 204.663 C 408.293 204.663 429.799 183.157 429.799 156.629 C 429.799 130.101 408.293 108.595 381.765 108.595 Z" style=""/>
</svg>